inDegrees=no
num_controls=7
num_derivatives=13
num_iterations=171
num_multipliers=7
num_parameters=0
num_slacks=7
num_states=26
objective=5.243276
objective_accelerations=0.469374
objective_balance=0.004538
objective_effort=0.394833
objective_height=4.351178
objective_ligament=0.023353
solver_duration=1511.954220
status=Solve_Succeeded
success=true
DataType=double
version=3
OpenSimVersion=4.4-2022-07-23-0e9fedc
endheader
time	/jointset/ground_pelvis/pelvis_tilt/value	/jointset/ground_pelvis/pelvis_tx/value	/jointset/ground_pelvis/pelvis_ty/value	/jointset/hip_r/hip_flexion_r/value	/jointset/hip_r/hip_adduction_r/value	/jointset/hip_r/hip_rotation_r/value	/jointset/back/lumbar_extension/value	/jointset/patellofemoral_r/patellar_flexion_r/value	/jointset/knee_r/knee_flexion_r/value	/jointset/knee_r/knee_adduction_r/value	/jointset/knee_r/knee_rotation_r/value	/jointset/ankle_r/ankle_angle_r/value	/jointset/subtalar_r/subtalar_angle_r/value	/jointset/ground_pelvis/pelvis_tilt/speed	/jointset/ground_pelvis/pelvis_tx/speed	/jointset/ground_pelvis/pelvis_ty/speed	/jointset/hip_r/hip_flexion_r/speed	/jointset/hip_r/hip_adduction_r/speed	/jointset/hip_r/hip_rotation_r/speed	/jointset/back/lumbar_extension/speed	/jointset/patellofemoral_r/patellar_flexion_r/speed	/jointset/knee_r/knee_flexion_r/speed	/jointset/knee_r/knee_adduction_r/speed	/jointset/knee_r/knee_rotation_r/speed	/jointset/ankle_r/ankle_angle_r/speed	/jointset/subtalar_r/subtalar_angle_r/speed	/forceset/tau_hip_flexion_r	/forceset/tau_hip_adduction_r	/forceset/tau_hip_rotation_r	/forceset/tau_knee_flexion_r	/forceset/tau_ankle_angle_r	/forceset/tau_subtalar_angle_r	/forceset/tau_lumbar_extension	lambda_cid13_p0	lambda_cid14_p0	lambda_cid14_p1	lambda_cid14_p2	lambda_cid14_p3	lambda_cid14_p4	lambda_cid14_p5	/jointset/ground_pelvis/pelvis_tilt/accel	/jointset/ground_pelvis/pelvis_tx/accel	/jointset/ground_pelvis/pelvis_ty/accel	/jointset/hip_r/hip_flexion_r/accel	/jointset/hip_r/hip_adduction_r/accel	/jointset/hip_r/hip_rotation_r/accel	/jointset/back/lumbar_extension/accel	/jointset/patellofemoral_r/patellar_flexion_r/accel	/jointset/knee_r/knee_flexion_r/accel	/jointset/knee_r/knee_adduction_r/accel	/jointset/knee_r/knee_rotation_r/accel	/jointset/ankle_r/ankle_angle_r/accel	/jointset/subtalar_r/subtalar_angle_r/accel	gamma_cid13_p0	gamma_cid14_p0	gamma_cid14_p1	gamma_cid14_p2	gamma_cid14_p3	gamma_cid14_p4	gamma_cid14_p5
1	-0.1502085745096971	0.005450283444297085	0.6908038823996797	1.207926410520735	-0.232805596430163	-0.1218917373363079	-0.7853802172180043	1.375298485786376	1.375298485786377	-0.174434784754893	0.1740910943394537	0.4362967980785771	0.1870428148220677	0.06773292097182879	0.005821643661577888	0.01579672667754051	-0.1019608319732253	-0.001671488226213271	0.005285528163684665	0.002777421341160281	-0.02260676940521657	-0.02260676940521435	0.01467840778881516	-2.280078232429938e-05	0.00994617499640712	0.002024480710864058	-0.2790248697907746	0.02057588928554105	0.01680546997250423	-0.4430409962718383	-0.03008586788556956	0.01377906868490234	0.3255238121486024	-0.04294332398176703	-59.4238846366426	-6.354359208753417	3.64399058235897	8.704658281084832	-752.0133535330297	79.69877936864664	0.9932647738878571	0.1219712595454203	1.503662550448884	-4.455561996649505	0.2591384281172105	-0.2363666789114628	0.1922743981592536	-4.568784154753588	-4.568784154753274	0.9388763291160968	0.008360762302185184	-1.291006130625256	-0.1940326371385014	2.833003742836812e-10	-2.171242989312139e-09	1.459033611057848e-08	8.025364087844789e-09	3.991593137665857e-09	-5.514950764858395e-09	2.132199838050649e-08
1.01	-0.1494825687128045	0.005514853506048622	0.69103692244793	1.206684852373638	-0.2328096413511855	-0.1218483499305223	-0.7853399715739916	1.374844450146573	1.374844450146577	-0.1742384068649355	0.1740911177645283	0.4363319948722575	0.1870529088793589	0.07742732025874105	0.007119923617895433	0.03081276806222244	-0.1463514096441185	0.0008523005385215542	0.003402332271216852	0.005490260583381346	-0.06820578583156882	-0.06820578583156339	0.02462315363042597	3.311551330402359e-05	-0.002874176962019322	-7.765309930749377e-06	-0.2800914468650533	0.02067598441008571	0.01686717596061391	-0.4429882216950306	-0.03043007843216587	0.0137539981523175	0.3269074248138308	-0.04293480134176104	-59.58515443380875	-6.390817096143832	3.64675636252805	8.449303369327422	-752.9557506727591	79.67941422618925	0.9513915288780314	0.1378905056641972	1.500795407997325	-4.43089600448122	0.247474687579024	-0.1627361894246468	0.3435716532646813	-4.556275255634965	-4.556275255634596	1.02617205762573	0.005062503783812729	-1.272654919844189	-0.2081243199148286	3.852027672539949e-09	2.169023846094658e-09	3.590753853680502e-08	4.133192788449771e-08	4.510193376856798e-09	-1.138011609741992e-08	6.208649183847042e-08
1.02	-0.1486608461184896	0.005593233195761476	0.6914201670051309	1.204999370379422	-0.2327887532671678	-0.1218234825126705	-0.7852660409442662	1.373934261368695	1.373934261368685	-0.1739418018473386	0.1740918714406741	0.4362399671084854	0.1870426197293698	0.08687628045707384	0.008583569253841402	0.04583762846765298	-0.1907456014018789	0.003315112780352649	0.001581530578345357	0.009514418466041395	-0.1138373970202817	-0.113837397020275	0.03472383330971896	0.0001232494325524053	-0.01549873657616503	-0.002052160745316054	-0.2811580239392083	0.02077607953464296	0.01692888194867067	-0.4429354471182245	-0.03077428897877787	0.01372892761974929	0.3282910374791699	-0.04293342460566457	-59.75507722756376	-6.423722235437298	3.643166605378499	8.199960855267163	-754.0395978788887	79.70145536216978	0.9441769561721476	0.1550443954709381	1.505426354598584	-4.456284814022886	0.2469431235365334	-0.2238878389922172	0.4545381262467085	-4.575303107225718	-4.575303107225797	0.9700630966524285	0.01520428702612609	-1.251847661769373	-0.1964625200566133	7.803121830386565e-09	1.0060988058719e-08	5.862575177631432e-08	7.707625935496969e-08	-1.77446618415401e-09	-1.529280908636323e-08	1.082142311225063e-07
1.03	-0.1477458090705681	0.005686925653862296	0.6919536127359817	1.202870241019045	-0.2327435050642435	-0.1218165695528464	-0.785146057424166	1.372567651937758	1.372567651937747	-0.1735435337441886	0.1740936706802393	0.4360223655182026	0.1870117372645343	0.09609377999196131	0.01016753200954922	0.06084363370028281	-0.2350478336888878	0.005728118627305445	-0.0001913834427429361	0.0146287243155855	-0.1594835597554464	-0.1594835597554386	0.04494614394697341	0.0002383252985937968	-0.0280196322393057	-0.004135105392355928	-0.2815072366111029	0.02087170954181899	0.01700441984383657	-0.4424136535509994	-0.03128063739681624	0.01370088439696477	0.3288916875476699	-0.04294807628722334	-59.9347071477779	-6.453702807559701	3.632354406288091	8.211452451121543	-754.3268840496966	79.6401150151502	0.90493811689055	0.1619619977721858	1.497001146518022	-4.412323082951477	0.2375336794962108	-0.1528500759807418	0.5618426280060292	-4.559135820398953	-4.559135820398571	1.050768733945673	0.009947179625541171	-1.251918329418298	-0.2158001566193157	1.175811769088206e-08	1.798919408131496e-08	8.13582610445306e-08	1.128454660057868e-07	-8.128546763534263e-09	-1.918557888812675e-08	1.543966974047675e-07
1.04	-0.1467397166943632	0.005796835695950886	0.6926368812269429	1.200299063206401	-0.2326743159299999	-0.1218271571117128	-0.7849705376828147	1.370744608286723	1.370744608286723	-0.173042551797315	0.1740966782670982	0.4356796134091029	0.1869597074093109	0.1050873461166077	0.01182708605139569	0.07580218048976063	-0.279155291852348	0.008103299043129571	-0.001918573156373302	0.02062166271303796	-0.2051242410401022	-0.205124241040092	0.05526660205157746	0.000364918893925267	-0.04052884033572794	-0.006281638823059196	-0.2818564492830392	0.02096733954897509	0.01707995773902604	-0.4418918599837799	-0.03178698581485959	0.01367284117413956	0.3294923376161289	-0.04296954517547903	-60.12298617150388	-6.480045692714909	3.615076886378718	8.226918691893861	-754.757270548499	79.62026949535307	0.8993902741240081	0.1701626526986299	1.49593466596817	-4.41732998931317	0.2393780373108307	-0.2147429775006338	0.6302646358282789	-4.574206817123916	-4.57420681712372	0.9896925901222856	0.01750783288408295	-1.249510148425722	-0.2091802767892548	1.519850356336261e-08	2.357375119396363e-08	1.013755199878429e-07	1.459417382120162e-07	-1.066722985110027e-08	-2.326080457780108e-08	1.933828806490077e-07
